<?xml version="1.0" standalone="no"?><!DOCTYPE svg PUBLIC "-//W3C//DTD SVG 1.1//EN" "http://www.w3.org/Graphics/SVG/1.1/DTD/svg11.dtd"><svg t="1740199603090" class="icon" viewBox="0 0 1024 1024" version="1.1" xmlns="http://www.w3.org/2000/svg" p-id="3645" xmlns:xlink="http://www.w3.org/1999/xlink" width="200" height="200"><path d="M935.4 363.9c-15.6-35.6-38-67.6-65-94.3-26.9-26.8-58.6-48.2-92.6-63.4-34.2-14.9-70.7-24.1-107.7-25.7-61.1-3.2-122.9 12.7-174.8 45.2-51.9 32.4-94.4 81-118.3 138.8l-4.3 10.9-2.1 5.5c-0.7 1.6-1.1 3-1.8 4.4-2.6 5.7-6.5 10.6-11.3 14.5-4.8 3.9-10.3 6.7-16.1 8.1-5.9 1.7-11.4 1.2-19.6 1l-45.4-1.3-22.7-0.5c-7.9 0.2-16.2-0.1-24.3 1-65 6-126.4 49.3-151.8 111.6-6.1 15.5-10.4 31.9-12.1 48.4-0.7 4.1-1 8.3-1 12.4l-0.3 12.5c0.4 8.3 1.1 16.7 2.3 25 5.6 33 19.8 64.9 41.9 90.4 22.1 25.3 50.6 45.8 83.1 56.1 8.1 2.5 16.3 5.1 24.7 6.3 4.2 0.7 8.4 1.7 12.6 2.1l12.8 0.9 6.4 0.4 5.7 0.1 11.4 0.2 22.7 0.3c121.2 1.7 242.3 3.9 363.5 6.4l27.5 0.6v-1.5c30.9-2.3 61.6-9.1 90.5-20.7 37.6-14.7 71.9-37.5 100.7-65.6 28.6-28.3 52-62.1 67.4-99.1 15.6-37 23-77.1 22.6-116.7-0.3-39.5-8.9-78.8-24.6-114.3z m-22.8 112.8c-5.6 66.9-35.6 130-83.4 175.1-47.5 45.5-111.7 72-177.9 73.3l-28.7 0.6C511 728 399.4 730 287.8 731.6l-22.7 0.3-11.4 0.2-5.7 0.1-5-0.2-9.9-0.4c-3.3-0.1-6.5-0.9-9.8-1.4-6.6-0.7-13-2.6-19.4-4.3-25.6-7.2-48.6-22.8-66.9-42.4-18.2-19.8-30.3-45-35.7-71.4-1.2-6.6-1.9-13.4-2.5-20.1v-10.2c-0.1-3.4-0.1-6.8 0.5-10.2 1-13.7 4.1-26.9 8.7-39.7 9.7-25.3 26.6-48.2 48.6-65 10.8-8.6 23-15.5 35.8-20.8 12.8-5.4 26.3-9.4 40.2-11.2 6.9-1.3 13.8-1.3 21-1.8l22.7-0.5 45.4-1.3c4-0.2 7-0.1 12-0.5 4.6-0.4 9.1-1.2 13.5-2.7 8.8-2.7 16.7-7.5 23.3-13.7 6.6-6.2 11.7-13.8 14.9-22.1 0.8-2 1.5-4.3 2.1-6.2l1.7-5.2 3.3-10.5c18.8-55.7 56.3-105.9 106.3-139.1 24.7-16.9 52.6-29 81.6-36.8 29.1-7.6 59.3-10.1 89.3-8.2 72.5 5.1 140.8 42.8 184.5 98 44.5 55 64.6 125.7 58.4 192.4z" fill="#1296db" p-id="3646"></path></svg>