<svg t="1733812657334" class="icon" viewBox="0 0 1024 1024" version="1.1" xmlns="http://www.w3.org/2000/svg" p-id="3976" width="200" height="200"><path d="M809.3 808.6V217.8H218.6v590.8h590.7m19.8 59.1H198.9c-21.7 0-39.4-17.6-39.4-39.4V198.1c0-21.8 17.6-39.4 39.4-39.4h630.2c21.7 0 39.4 17.6 39.4 39.4v630.2c0 21.7-17.7 39.4-39.4 39.4z" fill="#d81e06" p-id="3977"></path><path d="M671.5 493.5H356.4c-10.9 0-19.7-8.9-19.7-19.7v-19.7c0-10.9 8.8-19.7 19.7-19.7h205.8l-38.8-23.9c-9-5.5-12-17.8-6.9-27.4l9.4-17.3c3.5-6.4 9.8-10.1 16.3-10.1 3.2 0 6.4 0.9 9.4 2.7l124 76.4c8.9 1.8 15.6 9.8 15.6 19.3v19.7c0 10.9-8.8 19.7-19.7 19.7zM485.7 670.7c-3.2 0-6.4-0.9-9.4-2.7l-122.8-75.6c-9.5-1.4-16.8-9.6-16.8-19.5v-20.3c0-10.9 8.8-19.7 19.7-19.7h315.1c10.9 0 19.7 8.8 19.7 19.7v20.3c0 10.9-8.8 19.7-19.7 19.7h-205l38 23.4c9 5.6 12 17.8 6.9 27.3l-9.4 17.4c-3.5 6.4-9.8 10-16.3 10z" fill="#d81e06" p-id="3978"></path></svg>